<?xml version="1.0" encoding="utf-8"?>
<!-- Generator: Adobe Illustrator 27.9.0, SVG Export Plug-In . SVG Version: 6.00 Build 0)  -->
<svg version="1.1" id="Layer_1" xmlns="http://www.w3.org/2000/svg" xmlns:xlink="http://www.w3.org/1999/xlink" x="0px" y="0px"
	 viewBox="0 0 150 78" style="enable-background:new 0 0 150 78;" xml:space="preserve">
<style type="text/css">
	.st0{fill:#FFFFFF;}
	.st1{fill-rule:evenodd;clip-rule:evenodd;fill:#F6E111;}
</style>
<path class="st0" d="M135.8,22.2c-4.3,0-7.8-3.5-7.8-7.8c0-4.3,3.5-7.8,7.8-7.8c4.3,0,7.8,3.5,7.8,7.8
	C143.7,18.7,140.2,22.2,135.8,22.2z M135.8,0.2c-7.8,0-14.2,6.4-14.2,14.2c0,7.8,6.4,14.2,14.2,14.2c7.8,0,14.2-6.4,14.2-14.2
	C150,6.6,143.6,0.2,135.8,0.2z"/>
<path class="st0" d="M53.5,28.3c-7.8,0-14.2-6.4-14.2-14.2C39.3,6.4,45.7,0,53.5,0c3.8,0,7.3,1.5,10,4.1L59,8.6
	c-1.5-1.5-3.4-2.3-5.5-2.3c-4.3,0-7.8,3.5-7.8,7.8c0,4.3,3.5,7.8,7.8,7.8c2.1,0,4.1-0.8,5.5-2.3l4.5,4.5
	C60.8,26.8,57.3,28.3,53.5,28.3z"/>
<path class="st0" d="M0,60.4h6.8V49.7H17v-5.3H6.8v-5.3h11.7v-5.6H0V60.4z"/>
<path class="st0" d="M22.6,60.4h6.8V33.4h-6.8V60.4z"/>
<path class="st0" d="M33.6,39.1h7.3v21.3h6.8V39.1h7.5v-5.6H33.6V39.1z"/>
<path class="st0" d="M104.1,27.8h6.8V6.5h7.5V0.9H96.8v5.6h7.3V27.8z"/>
<path class="st0" d="M16,15.7L5.3,0.9H0v26.9h6.8v-15l10.7,15h5.2V0.9H16V15.7z"/>
<path class="st0" d="M28.5,27.8h6.8V0.9h-6.8V27.8z"/>
<path class="st0" d="M86.1,22.2H74.4v-5h10.2v-5.3H74.4V6.5h11.7V0.9H67.6v26.9h18.5V22.2z"/>
<path class="st1" d="M114.4,46.7c-1.9,9.6-5.8,11.1-7.8,11c-0.7,0-2.6-0.1-3.2-3c-0.8-3.9,0.3-7.8,0.1-7.8c-0.1,0-0.8,3.1-0.7,5.7
	c0.1,2.8,0.8,4,1,4.4c0.1,0.1,0.1,0.2,0.1,0.2c-0.1,0.1-2.7-2.8-1.1-11.1c0.4-2.3,1.2-4.2,2.1-5.7c0.3,0.7,1,1.9,2.5,2.3
	c2.2,0.6,5-0.3,5.7-0.7c0.5-0.3-0.8,0.3-2.4,0.5c-1.3,0.2-2.3,0.1-2.5,0c0.5,0,1,0,1.5-0.1c1.5-0.2,3.2-0.8,5-1.6
	C115,42.7,114.8,44.9,114.4,46.7z M106.9,37.7c0,0,0-0.1,0-0.1c0.3-0.3,0.6-0.6,0.9-0.8c0.8-0.7,1.4-0.8,1.4-0.8
	c2.8-0.6,4.3,0.6,5,2.7c-2.1,0.9-4,1.4-5.9,1.2C106.9,39.6,106.8,38.6,106.9,37.7z M149.6,33.1c0,0,0,0.2-0.1,0.5
	c0,0.4-0.1,1-0.2,1.7c-0.1,0.7-0.2,1.5-0.3,2.3c-0.3,2.1-0.8,4.6-1,5.9c-0.1,0.6-0.1,0.6-0.1,0c0.1-1.1,0.4-3.1,0.6-4.9
	c0.2-1.9,0.4-3.2,0.4-4.8c0-0.7-0.2-1.1-0.5-1.4c-0.3-0.3-0.6-0.4-0.9-0.4c-0.6-0.1-1.2,0-1.7,0c-0.9,0-1.5,0.1-1.5,0.1
	s-0.1,0-0.1,0c0,0,0.1-0.1,0.3-0.2c0.2,0,0.4,0,0.5-0.1c0.2,0-0.2-0.1-1.2,0.1c-1.6,0.3-1.6,1.1-1.8,2.3c-0.1,0.4-0.4,3.5-1.1,7.1
	c-0.7,3.6-1.3,6.3-2.6,9.4c-2.8,7-6.7,7.1-7.5,4.8c-0.7-2-0.6-4.4-0.5-5.4c0-0.3,0.1-0.3,0.1,0c0.1,1.2,0.3,4.1,0.6,4
	c0.2-0.1-0.2-2.1,0.3-8.4c0.4-5.1,1.4-7.6,1.3-7.7c-0.1,0-0.7,1.8-1.1,3.5c-0.3,1.4-0.5,2.9-0.6,3.9c-0.1,0.7-0.1,0.7,0,0
	c0.1-1.3,0.3-3.7,0.8-6c0.4-2.1,1.1-4.2,1.2-5.5c0.1-0.8-0.2-1.1-0.6-1.3c-1.2-0.6-2.3-0.7-3-0.7c-0.4,0-0.7,0-0.7,0s-0.1,0-0.2,0
	c-2,0.2-4.2,1.5-8.7,4.1c-0.7-1.4-1.6-2.6-2.8-3.3c-0.5-0.4-1.1-0.6-1.8-0.8c-5-1.1-8.5,1.2-8.5,1.2s-0.6-0.7-1.6-1.2
	c-1-0.5-2.3-0.8-3.3,0.5c-0.5,0.7-3.4,4.1-5,10.5c-1.3,4.9-1.2,10.1,0.2,13.5c1.2,3,3.4,5.2,7.1,6c4.2,0.8,8-0.9,8-1
	c0-0.1-0.1,0-0.4,0.1c-0.5,0.1-1.5,0.4-2.5,0.6c-1.1,0.1-1.9,0.1-2.4,0.1c-0.5,0-0.5-0.1,0,0c1.9,0,6.8-0.5,10-5.9
	c2.4-4.1,3.2-9.2,3.3-12.4c0.1-2.2-0.1-3.8-0.2-4.6c-0.1-0.4-0.1-0.4,0.1,0c0.2,0.8,0.5,2.4,0.6,4.4c0,5-1.1,8.1-1,8
	c0.2,0,2.5-7.5,0.9-13.5c0.9-0.6,3-2,4.1-2.6c1-0.5,1-0.1,1,0.3c-0.8,3.7-2.4,14-1.1,20.7c0.7,3.9,3.1,5.6,5.7,5.8
	c3.9,0.3,7.1-2.3,7.1-2.3s-0.1,0-0.6,0.2c-1.2,0.7-2.5,1.1-3.4,1.4c-0.5,0.1-0.6,0.2,0,0c1.4-0.5,4.3-1.8,6.1-5.4
	c0.6-1.1,0.6-1.2,0.2,1c-0.1,0.8-0.2,1.1-0.4,2.7c-0.1,0.8,0,1.4,0.4,1.7c0.1,0.1,0.3,0.1,0.4,0.1c0.3,0,0.4,0,0.6,0.1
	c0.6,0,1.1,0,1.6,0c1-0.1,1.7-0.5,2-1.1c0.3-0.5,0.7-2.2,1-3.3c0.3-1,0.6-2.1,0.7-2.6c0.1-0.3,0.1-0.3,0.1,0
	c-0.1,0.5-0.2,1.3-0.4,2.4c-0.3,1.7-0.6,2.7-0.5,2.7c0.1,0,1.3-3.6,2.5-9.9c0.8-4.1,1.5-8.7,1.9-12c0.2-2.1,0.4-3.6,0.4-4.3
	C149.6,33.3,149.6,33.1,149.6,33.1z"/>
<path class="st1" d="M93,42.4c-1.4,5.4-3.1,8.6-3.1,8.6s3.1-7.7,3.3-17.4c0-2-1-2.9-1.8-2.7c-3.5,0.8-4.9,0.9-5.4,2.6
	c-0.3,1-3,11.1-6.6,18.6c-1.9,3.9-3.4,6.7-4.2,4.6c-1.1-3-1.1-5.9-1.1-5.9s1.5,5.2,1.7,5c0.1-0.1-1.1-4.3-1.4-8.9
	c-0.2-4.2,0.5-8.7,0.4-8.7c-0.1,0-0.4,1.6-0.6,3.6c-0.2,2.5-0.4,5.4-0.4,5.4s-0.3-3.9,0.1-8.1c0.4-3.9,1.3-6.1-0.4-6.5
	c-1.9-0.5-4.1-0.1-4.1-0.1s-2.3,0.1-2.7,3.2c-0.4,3.3-0.4,14.5,2,21.9c0.7,2.2,1.5,3.8,2.8,4.7c1.1,0.7,2.8,0.7,3.6,0.2
	c4.6-3,7.5-10.3,7.5-10.3s-0.7,4.6-3.6,10.3c-1.4,2.7-3.1,5.6-5.7,8.6c-1.4,1.6-3.5,2.6-5,1.8c-1.7-0.9-2.6-3.6-2.6-3.6
	s-0.2-0.4-0.1,0.1c0.2,1.4,1.2,2.8,1.2,2.8s-0.7-0.2-1.6-2.1c-0.4-0.7-0.6-2.2-0.7-2.2c-0.2,0-0.9,2.1,0.2,4.7
	c1,2.3,3.2,3.9,5.9,3.8c1.8,0,4-0.8,7.4-3.7c3.6-3.2,7-8.3,9.6-13.3c7.2-13.6,7.2-27.2,7-27.2C94.5,32.3,94.5,36.4,93,42.4z"/>
<g>
	<path class="st0" d="M94.7,69.9h2l3.6,5.5v-5.5h1.7v7.9h-1.9l-3.6-5.6v5.6h-1.7V69.9z"/>
	<path class="st0" d="M111.1,69.9v1.4h-2.4v6.5h-1.7v-6.5h-2.4v-1.4H111.1z"/>
	<path class="st0" d="M113.8,69.9h5.5v1.4h-3.9v1.8h3.4v1.4h-3.4v3.3h-1.6V69.9z"/>
	<path class="st0" d="M126.9,69.9h1.9l-2.6,4.9v3h-1.7v-3l-2.7-4.9h2l1.6,3.4L126.9,69.9z"/>
	<path class="st0" d="M129.3,76.5h1.6v1.3h-1.6V76.5z"/>
	<path class="st0" d="M135,70.7c0.6-0.7,1.4-1,2.4-1c1.3,0,2.3,0.4,2.9,1.3c0.3,0.5,0.5,1,0.5,1.5h-1.7c-0.1-0.4-0.2-0.7-0.4-0.9
		c-0.3-0.3-0.7-0.5-1.3-0.5c-0.6,0-1.1,0.2-1.4,0.7s-0.5,1.2-0.5,2.1s0.2,1.6,0.5,2s0.8,0.7,1.4,0.7c0.6,0,1-0.2,1.3-0.6
		c0.2-0.2,0.3-0.5,0.4-0.9h1.6c-0.1,0.9-0.5,1.6-1.1,2.1c-0.6,0.5-1.3,0.8-2.2,0.8c-1.1,0-2-0.4-2.7-1.1c-0.6-0.7-1-1.7-1-3
		C133.9,72.5,134.3,71.4,135,70.7z"/>
	<path class="st0" d="M142.8,76.4l4-5.1h-3.9v-1.4h6v1.3l-4.1,5.2h4.1v1.4h-6.1V76.4z"/>
</g>
</svg>
